<?xml version="1.0" encoding="UTF-8"?>
<svg width="24px" height="24px" viewBox="0 0 24 24" version="1.1" xmlns="http://www.w3.org/2000/svg" xmlns:xlink="http://www.w3.org/1999/xlink">
    <!-- Generator: Sketch 45.2 (43514) - http://www.bohemiancoding.com/sketch -->
    <title>icn_download_pdf@3x</title>
    <desc>Created with Sketch.</desc>
    <defs></defs>
    <g id="PDP" stroke="none" stroke-width="1" fill="none" fill-rule="evenodd">
        <g id="noun_349047_cc" transform="translate(3.000000, 1.000000)" fill-rule="nonzero" fill="#CF021B">
            <g id="Group">
                <g transform="translate(5.329359, 9.781456)" id="Shape">
                    <path d="M-3.55271368e-15,0.0904194079 C0.158233964,0.0678145559 0.384282484,0.0452097039 0.700750411,0.0452097039 C1.01721834,0.0452097039 1.24326686,0.11302426 1.40150082,0.22604852 C1.53712993,0.33907278 1.65015419,0.519911595 1.65015419,0.745960115 C1.65015419,0.972008635 1.58233964,1.15284745 1.44671053,1.28847656 C1.26587171,1.44671053 1.01721834,1.53712993 0.700750411,1.53712993 C0.632935855,1.53712993 0.565121299,1.53712993 0.519911595,1.53712993 L0.519911595,2.35090461 L-3.55271368e-15,2.35090461 L-3.55271368e-15,0.0904194079 Z M0.519911595,1.1302426 C0.565121299,1.1302426 0.610331003,1.15284745 0.700750411,1.15284745 C0.972008635,1.15284745 1.15284745,1.01721834 1.15284745,0.791169819 C1.15284745,0.587726151 1.01721834,0.452097039 0.745960115,0.452097039 C0.632935855,0.452097039 0.565121299,0.452097039 0.542516447,0.474701891 L0.542516447,1.1302426 L0.519911595,1.1302426 Z"></path>
                    <path d="M2.96662212,0.0904194079 C3.14746094,0.0678145559 3.39611431,0.0452097039 3.66737253,0.0452097039 C4.09686472,0.0452097039 4.3907278,0.11302426 4.59417146,0.293863076 C4.82021998,0.474701891 4.97845395,0.745960115 4.97845395,1.15284745 C4.97845395,1.58233964 4.82021998,1.89880757 4.59417146,2.07964638 C4.34551809,2.28309005 3.98384046,2.37350946 3.53174342,2.37350946 C3.2604852,2.37350946 3.07964638,2.35090461 2.94401727,2.35090461 L2.94401727,0.0904194079 L2.96662212,0.0904194079 Z M3.48653372,1.94401727 C3.53174342,1.94401727 3.59955798,1.94401727 3.66737253,1.94401727 C4.14207442,1.94401727 4.4359375,1.6953639 4.4359375,1.15284745 C4.4359375,0.678145559 4.16467928,0.429492187 3.71258224,0.429492187 C3.59955798,0.429492187 3.53174342,0.429492187 3.48653372,0.452097039 L3.48653372,1.94401727 L3.48653372,1.94401727 Z"></path>
                    <polygon points="6.31752673 0.0452097039 7.71902755 0.0452097039 7.71902755 0.474701891 6.83743832 0.474701891 6.83743832 0.994613487 7.65121299 0.994613487 7.65121299 1.42410567 6.83743832 1.42410567 6.83743832 2.35090461 6.31752673 2.35090461 6.31752673 0.0452097039"></polygon>
                </g>
                <path d="M17.8352282,5.40255962 L12.975185,0.542516447 C12.7491365,0.316467928 12.4552734,0.203443668 12.1388055,0.203443668 L1.46931538,0.203443668 C0.723355263,0.203443668 0.11302426,0.813774671 0.11302426,1.55973479 L0.11302426,20.0957134 C0.11302426,20.8416735 0.723355263,21.4520045 1.46931538,21.4520045 L16.8406147,21.4520045 C17.5865748,21.4520045 18.1969058,20.8416735 18.1969058,20.0957134 L18.1969058,6.3067537 C18.1969058,5.96768092 18.0612767,5.62860814 17.8352282,5.40255962 Z M15.2149639,13.2893115 L3.117571,13.2893115 C2.82430087,13.2893115 2.60434827,13.0449197 2.60434827,12.7760888 L2.60434827,9.47679979 C2.60434827,9.18352966 2.84874005,8.96357706 3.117571,8.96357706 L15.2149639,8.96357706 C15.5082341,8.96357706 15.7281867,9.20796884 15.7281867,9.47679979 L15.7281867,12.7760888 C15.7281867,13.0693589 15.4837949,13.2893115 15.2149639,13.2893115 Z" id="Shape"></path>
            </g>
        </g>
    </g>
</svg>