<?xml version="1.0" encoding="UTF-8"?>
<svg width="24px" height="24px" viewBox="0 0 24 24" version="1.1" xmlns="http://www.w3.org/2000/svg" xmlns:xlink="http://www.w3.org/1999/xlink">
    <!-- Generator: Sketch 57.1 (83088) - https://sketch.com -->
    <title>components/content/special-status/pdf_dark</title>
    <desc>Created with Sketch.</desc>
    <g id="components/content/special-status/pdf_dark" stroke="none" stroke-width="1" fill="none" fill-rule="evenodd">
        <path d="M18,2 C19.1045695,2 20,2.8954305 20,4 L20,20 C20,21.1045695 19.1045695,22 18,22 L6,22 C4.8954305,22 4,21.1045695 4,20 L4,4 C4,2.8954305 4.8954305,2 6,2 L18,2 Z M12.2286993,13.1981752 L10.2668549,13.1981752 L10.2668549,17.8696959 L12.2286993,17.8696959 C13.6337167,17.8696959 14.4139222,17.0215057 14.4139222,15.4869937 C14.4139222,14.0269411 13.6207672,13.1981752 12.2286993,13.1981752 Z M8.18615275,13.1981752 L6.14013672,13.1981752 L6.14013672,17.8696959 L7.32825046,17.8696959 L7.32825046,16.5002896 L8.11493067,16.5002896 C9.15412553,16.5002896 9.86958367,15.8495788 9.86958367,14.8557071 C9.86958367,13.8521233 9.18973657,13.1981752 8.18615275,13.1981752 Z M18,13.1981752 L14.8209055,13.1981752 L14.8209055,17.8696959 L16.0090192,17.8696959 L16.0090192,16.1279924 L17.8154701,16.1279924 L17.8154701,15.2182923 L16.0090192,15.2182923 L16.0090192,14.1531985 L18,14.1531985 L18,13.1981752 Z M12.0150331,14.1531985 C12.7628649,14.1531985 13.2031469,14.6388035 13.2031469,15.5096553 C13.2031469,16.3776744 12.8360977,16.8530362 12.1553496,16.9090657 L12.0150331,16.9146726 L11.4549686,16.9146726 L11.4549686,14.1531985 L12.0150331,14.1531985 Z M7.87212814,14.1111127 C8.37392005,14.1111127 8.66852046,14.3668647 8.66852046,14.8589445 C8.66852046,15.3040825 8.41825399,15.5588003 7.98754178,15.5981621 L7.86565341,15.6035389 L7.32825046,15.6035389 L7.32825046,14.1111127 L7.87212814,14.1111127 Z M17,4 L13.6035534,4 C13.4654822,4 13.3535534,4.11192881 13.3535534,4.25 C13.3535534,4.31630412 13.3798926,4.3798926 13.4267767,4.4267767 L17.5732233,8.5732233 C17.6708544,8.67085438 17.8291456,8.67085438 17.9267767,8.5732233 C17.9736608,8.52633921 18,8.46275073 18,8.39644661 L18,5 C18,4.44771525 17.5522847,4 17,4 Z" id="icon-tint" fill="#FF596D" fill-rule="nonzero"></path>
    </g>
</svg>